<svg width="111" height="113" viewBox="0 0 111 113" fill="none" xmlns="http://www.w3.org/2000/svg">
<path d="M17 2C17 0.89543 16.1046 -4.82823e-08 15 0C13.8954 4.82823e-08 13 0.895431 13 2L17 2ZM13.5858 112.414C14.3668 113.195 15.6332 113.195 16.4142 112.414L29.1421 99.6863C29.9232 98.9052 29.9232 97.6389 29.1421 96.8579C28.3611 96.0768 27.0948 96.0768 26.3137 96.8579L15 108.172L3.6863 96.8579C2.90525 96.0768 1.63892 96.0768 0.857869 96.8579C0.0768198 97.6389 0.0768198 98.9052 0.857869 99.6863L13.5858 112.414ZM13 2L13 111L17 111L17 2L13 2Z" fill="#262626"/>
<path d="M98 2C98 0.89543 97.1046 -4.82823e-08 96 0C94.8954 4.82823e-08 94 0.895431 94 2L98 2ZM94.5858 112.414C95.3668 113.195 96.6332 113.195 97.4142 112.414L110.142 99.6863C110.923 98.9052 110.923 97.6389 110.142 96.8579C109.361 96.0768 108.095 96.0768 107.314 96.8579L96 108.172L84.6863 96.8579C83.9052 96.0768 82.6389 96.0768 81.8579 96.8579C81.0768 97.6389 81.0768 98.9052 81.8579 99.6863L94.5858 112.414ZM94 2L94 111L98 111L98 2L94 2Z" fill="#262626"/>
</svg>
