<svg width="53" height="54" viewBox="0 0 53 54" fill="none" xmlns="http://www.w3.org/2000/svg">
<path d="M52.3837 2.33183L51.1512 11.2909C47.9465 11.0455 45.6046 11.7 44.1256 13.2546C42.6465 14.8092 41.7427 16.8955 41.414 19.5137C41.0852 22.1318 41.0031 24.9545 41.1674 27.9818H52.3837V53.8773H31.307V23.0728C31.307 15.5455 33.1969 9.90002 36.9767 6.13638C40.8387 2.37275 45.9744 1.10456 52.3837 2.33183ZM21.0767 2.33183L19.8442 11.2909C16.6395 11.0455 14.2977 11.7 12.8186 13.2546C11.3395 14.8092 10.4357 16.8955 10.107 19.5137C9.77829 22.1318 9.69613 24.9545 9.86046 27.9818H21.0767V53.8773H0V23.0728C0 15.5455 1.88992 9.90002 5.66977 6.13638C9.53179 2.37275 14.6674 1.10456 21.0767 2.33183Z" fill="#262626"/>
</svg>
