<svg width="11" height="18" viewBox="0 0 11 18" fill="none" xmlns="http://www.w3.org/2000/svg">
<path d="M0 6.6755C0 6.6755 3.21966 7.35982 5.07692 6.6755C6.02979 6.32441 6.85094 5.52946 7.52855 4.60596C8.30963 2.16908 9.79121 0 9.79121 0C9.79121 0 8.9969 2.60479 7.52855 4.60596C7.02038 6.19141 6.80872 7.89023 7.49451 9.17881C8.36375 10.8121 11 12.3974 11 12.3974C11 12.3974 7.46813 10.9302 5.31868 11.5629C4.45728 11.8165 3.6958 12.4433 3.04679 13.2114C2.3544 15.6394 0.483516 18 0.483516 18C0.483516 18 1.40554 15.1538 3.04679 13.2114C3.31527 12.2699 3.40656 11.3182 3.14286 10.4901C2.55974 8.65882 0 6.6755 0 6.6755Z" fill="#DC1D03"/>
</svg>
