<svg width="31" height="52" viewBox="0 0 31 52" fill="none" xmlns="http://www.w3.org/2000/svg">
<path d="M0 19.0247C0 19.0247 9.0736 20.9636 14.3077 19.0247C16.9931 18.03 19.3072 15.7776 21.2168 13.1611C23.418 6.25656 27.5934 0.11084 27.5934 0.11084C27.5934 0.11084 25.3549 7.49108 21.2168 13.1611C19.7847 17.6532 19.1882 22.4665 21.1209 26.1175C23.5706 30.7451 31 35.2367 31 35.2367C31 35.2367 21.0465 31.0797 14.989 32.8724C12.5614 33.5909 10.4154 35.3668 8.58642 37.543C6.63514 44.4226 1.36264 51.1108 1.36264 51.1108C1.36264 51.1108 3.96106 43.0466 8.58642 37.543C9.34304 34.8754 9.6003 32.1791 8.85714 29.8327C7.2138 24.6442 0 19.0247 0 19.0247Z" fill="white"/>
</svg>
