<svg width="15" height="26" viewBox="0 0 15 26" fill="none" xmlns="http://www.w3.org/2000/svg">
<path d="M0 9.77152C0 9.77152 4.39045 10.722 6.92308 9.77152C8.22245 9.2839 9.3422 8.1798 10.2662 6.89717C11.3313 3.5126 13.3516 0.5 13.3516 0.5C13.3516 0.5 12.2685 4.11776 10.2662 6.89717C9.57324 9.09919 9.28462 11.4586 10.2198 13.2483C11.4051 15.5168 15 17.7185 15 17.7185C15 17.7185 10.1838 15.6808 7.25275 16.5596C6.07811 16.9118 5.03973 17.7823 4.15472 18.8491C3.21055 22.2215 0.659341 25.5 0.659341 25.5C0.659341 25.5 1.91664 21.5469 4.15472 18.8491C4.52083 17.5415 4.6453 16.2197 4.28571 15.0695C3.49055 12.5261 0 9.77152 0 9.77152Z" fill="#262626"/>
</svg>
