<svg width="37" height="23" viewBox="0 0 37 23" fill="none" xmlns="http://www.w3.org/2000/svg">
<path d="M14.7369 0.0538306C14.7369 0.0538306 18.1926 5.32269 21.6155 6.9325C23.3717 7.75841 25.5374 7.81785 27.6789 7.5125C31.9655 5.34243 36.8464 4.47626 36.8464 4.47626C36.8464 4.47626 32.3195 6.85083 27.6789 7.5125C24.89 8.92436 22.3527 10.8881 21.5748 13.5244C20.5887 16.8659 22.0605 22.5378 22.0605 22.5378C22.0605 22.5378 19.2188 15.8088 15.4683 13.7348C13.9653 12.9036 12.1033 12.7023 10.2064 12.8405C6.05158 15.119 0.389516 15.7114 0.389516 15.7114C0.389516 15.7114 5.40936 13.19 10.2064 12.8405C11.8174 11.9569 13.2018 10.8199 13.9416 9.36552C15.5776 6.14946 14.7369 0.0538306 14.7369 0.0538306Z" fill="#EBEBEB"/>
</svg>
