<svg width="177" height="96" viewBox="0 0 177 96" fill="none" xmlns="http://www.w3.org/2000/svg">
<path d="M175.734 48.0142C175.731 57.1115 173.031 66.0037 167.975 73.5665C162.919 81.1293 155.734 87.0231 147.328 90.5025C138.922 93.982 129.674 94.8909 120.751 93.1144C111.829 91.3378 103.634 86.9556 97.2024 80.5219C90.7706 74.0881 86.391 65.8916 84.6172 56.9689C82.8435 48.0462 83.7553 38.7978 87.2373 30.3933C90.7193 21.9887 96.6153 14.8053 104.18 9.75143C111.744 4.69752 120.637 2 129.734 2" stroke="white" stroke-width="2.5" stroke-miterlimit="10"/>
<path d="M1 74.3752L22.6144 52.7607" stroke="white" stroke-width="1.5" stroke-miterlimit="10"/>
<path d="M19.8428 74.3752L41.4573 52.7607" stroke="white" stroke-width="1.5" stroke-miterlimit="10"/>
<path d="M38.6865 74.3752L60.301 52.7607" stroke="white" stroke-width="1.5" stroke-miterlimit="10"/>
<path d="M57.5303 74.3752L79.1447 52.7607" stroke="white" stroke-width="1.5" stroke-miterlimit="10"/>
<path d="M76.373 74.3752L97.9875 52.7607" stroke="white" stroke-width="1.5" stroke-miterlimit="10"/>
<path d="M95.2168 74.3752L116.831 52.7607" stroke="white" stroke-width="1.5" stroke-miterlimit="10"/>
<path d="M114.061 74.3752L135.689 52.7607" stroke="white" stroke-width="1.5" stroke-miterlimit="10"/>
</svg>
