<svg width="488" height="519" viewBox="0 0 488 519" fill="none" xmlns="http://www.w3.org/2000/svg">
<path d="M111.54 259.245C111.54 177.756 177.599 111.696 259.088 111.696C340.577 111.696 406.637 177.756 406.637 259.245C406.637 340.734 340.577 406.793 259.088 406.793C177.599 406.793 111.54 340.734 111.54 259.245Z" stroke="white" stroke-width="2" stroke-miterlimit="10"/>
<path d="M75.6308 183.585C117.401 82.1937 233.455 33.861 334.847 75.6307C436.238 117.4 484.57 233.455 442.801 334.846C401.031 436.238 284.976 484.57 183.585 442.801C82.1938 401.031 33.8611 284.976 75.6308 183.585Z" stroke="white" stroke-width="2" stroke-miterlimit="10"/>
<path d="M86.109 259.245C86.109 293.471 96.2583 326.929 115.273 355.387C134.288 383.845 161.315 406.025 192.936 419.123C224.557 432.221 259.352 435.648 292.92 428.971C326.489 422.294 357.324 405.812 381.525 381.611C405.727 357.409 422.209 326.574 428.886 293.006C435.563 259.437 432.136 224.642 419.038 193.021C405.94 161.4 383.76 134.374 355.302 115.358C326.844 96.3434 293.386 86.1942 259.16 86.1942C213.28 86.2469 169.295 104.496 136.853 136.938C104.411 169.38 86.1617 213.365 86.109 259.245V259.245Z" stroke="white" stroke-width="2" stroke-miterlimit="10"/>
<path d="M111.54 259.245C111.54 177.756 177.599 111.696 259.088 111.696C340.577 111.696 406.637 177.756 406.637 259.245C406.637 340.734 340.577 406.793 259.088 406.793C177.599 406.793 111.54 340.734 111.54 259.245Z" stroke="white" stroke-width="2" stroke-miterlimit="10"/>
<path d="M138.906 259.245C138.906 192.87 192.713 139.063 259.088 139.063C325.462 139.063 379.27 192.87 379.27 259.245C379.27 325.62 325.462 379.427 259.088 379.427C192.713 379.427 138.906 325.62 138.906 259.245Z" stroke="white" stroke-width="2" stroke-miterlimit="10"/>
<path d="M163.974 259.245C163.974 206.715 206.558 164.131 259.087 164.131C311.617 164.131 354.201 206.715 354.201 259.245C354.201 311.775 311.617 354.359 259.087 354.359C206.558 354.359 163.974 311.775 163.974 259.245Z" stroke="white" stroke-width="2" stroke-miterlimit="10"/>
<path opacity="0.5" d="M326.617 434.124C326.617 405.715 349.647 382.684 378.056 382.684C406.465 382.684 429.495 405.715 429.495 434.124C429.495 462.533 406.465 485.563 378.056 485.563C349.647 485.563 326.617 462.533 326.617 434.124Z" fill="white"/>
</svg>
